<svg width="40px" height="40px" viewBox="-6.12 -6.12 30.24 30.24" xmlns="http://www.w3.org/2000/svg" fill="#000000" stroke="#000000" stroke-width="0.00018" transform="rotate(0)">

    <g id="SVGRepo_bgCarrier" stroke-width="0" transform="translate(0,0), scale(1)">

        <path transform="translate(-6.12, -6.12), scale(0.945)" d="M16,24.797320267087535C19.307295130741455,25.864473230244776,22.010099114014245,29.866848986137846,25.331106551616195,28.84316635563465C28.43212719996154,27.887293466402244,29.402964299525614,23.72210346878736,29.8942139193636,20.51450376607464C30.339808689493427,17.60500603929744,29.160456627242805,14.791783094193123,27.889716867826692,12.136796807010489C26.76931907091304,9.795923496835483,25.410467653816063,7.39275145872679,23.073596883144646,6.2640291373384684C20.896794224060827,5.212620654934698,18.41652877086557,6.32827978415223,16,6.393993656690183C13.67596551275598,6.457192286025706,11.38441245087939,5.844014105190673,9.200497186321638,6.641287259060226C6.437324011138278,7.650027766449966,3.3568443712869955,8.82746644806561,2.0779625528593364,11.476455821731907C0.7559449049800848,14.21479383746588,0.9169462667354498,17.81364075961208,2.576630466331734,20.36151715130154C4.1514390819475055,22.779096166714595,7.473482724994905,23.059777471345487,10.21303566908416,23.96507307948412C12.109873314624672,24.591890237212283,14.098798481803795,24.183866446518678,16,24.797320267087535" fill="#2a2a2a" strokewidth="0"/>

    </g>

    <g id="SVGRepo_tracerCarrier" stroke-linecap="round" stroke-linejoin="round" stroke="#CCCCCC" stroke-width="0.036"/>

    <g id="SVGRepo_iconCarrier"> <path fill="#9780e5" d="M7 12.923a1 1 0 0 1-.554-.166.983.983 0 0 1-.277-1.373l4-5.94a1 1 0 0 1 1.385-.274.983.983 0 0 1 .277 1.373l-4 5.94a1 1 0 0 1-.833.44zm10.708-3.257l-3 2.97a1.02 1.02 0 0 1-1.42 0 .99.99 0 0 1 0-1.406l2.29-2.267-2.29-2.277a.98.98 0 0 1 0-1.4 1.015 1.015 0 0 1 1.42 0l3 2.97a.99.99 0 0 1 0 1.41zM4.712 11.23a.99.99 0 0 1 0 1.406 1.02 1.02 0 0 1-1.42 0l-3-2.97a.99.99 0 0 1 0-1.406l3-2.97a1.015 1.015 0 0 1 1.42 0 .98.98 0 0 1 0 1.4l-2.29 2.273z"/> </g>

</svg>